G04 #@! TF.GenerationSoftware,KiCad,Pcbnew,5.1.5-5.1.5*
G04 #@! TF.CreationDate,2020-06-30T19:25:59-04:00*
G04 #@! TF.ProjectId,PIN-100,50494e2d-3130-4302-9e6b-696361645f70,1*
G04 #@! TF.SameCoordinates,Original*
G04 #@! TF.FileFunction,Legend,Top*
G04 #@! TF.FilePolarity,Positive*
%FSLAX46Y46*%
G04 Gerber Fmt 4.6, Leading zero omitted, Abs format (unit mm)*
G04 Created by KiCad (PCBNEW 5.1.5-5.1.5) date 2020-06-30 19:25:59*
%MOMM*%
%LPD*%
G04 APERTURE LIST*
%ADD10C,0.203200*%
%ADD11C,0.100000*%
%ADD12O,2.133600X2.133600*%
%ADD13R,2.133600X2.133600*%
G04 APERTURE END LIST*
D10*
X152400000Y-66040000D02*
X152400000Y-63500000D01*
X152400000Y-63500000D02*
X172720000Y-63500000D01*
X152400000Y-66040000D02*
X172720000Y-66040000D01*
X172720000Y-66040000D02*
X172720000Y-63500000D01*
X152400000Y-68580000D02*
X152400000Y-66040000D01*
X152400000Y-66040000D02*
X172720000Y-66040000D01*
X152400000Y-68580000D02*
X172720000Y-68580000D01*
X172720000Y-68580000D02*
X172720000Y-66040000D01*
X152400000Y-71120000D02*
X152400000Y-68580000D01*
X152400000Y-68580000D02*
X172720000Y-68580000D01*
X152400000Y-71120000D02*
X172720000Y-71120000D01*
X172720000Y-71120000D02*
X172720000Y-68580000D01*
X152400000Y-73660000D02*
X152400000Y-71120000D01*
X152400000Y-71120000D02*
X172720000Y-71120000D01*
X152400000Y-73660000D02*
X172720000Y-73660000D01*
X172720000Y-73660000D02*
X172720000Y-71120000D01*
X152400000Y-76200000D02*
X152400000Y-73660000D01*
X152400000Y-73660000D02*
X172720000Y-73660000D01*
X152400000Y-76200000D02*
X172720000Y-76200000D01*
X172720000Y-76200000D02*
X172720000Y-73660000D01*
X152400000Y-78740000D02*
X152400000Y-76200000D01*
X152400000Y-76200000D02*
X172720000Y-76200000D01*
X152400000Y-78740000D02*
X172720000Y-78740000D01*
X172720000Y-78740000D02*
X172720000Y-76200000D01*
X152400000Y-81280000D02*
X152400000Y-78740000D01*
X152400000Y-78740000D02*
X172720000Y-78740000D01*
X152400000Y-81280000D02*
X172720000Y-81280000D01*
X172720000Y-81280000D02*
X172720000Y-78740000D01*
X152400000Y-83820000D02*
X152400000Y-81280000D01*
X152400000Y-81280000D02*
X172720000Y-81280000D01*
X152400000Y-83820000D02*
X172720000Y-83820000D01*
X172720000Y-83820000D02*
X172720000Y-81280000D01*
X152400000Y-86360000D02*
X152400000Y-83820000D01*
X152400000Y-83820000D02*
X172720000Y-83820000D01*
X152400000Y-86360000D02*
X172720000Y-86360000D01*
X172720000Y-86360000D02*
X172720000Y-83820000D01*
X152400000Y-88900000D02*
X152400000Y-86360000D01*
X152400000Y-86360000D02*
X172720000Y-86360000D01*
X152400000Y-88900000D02*
X172720000Y-88900000D01*
X172720000Y-88900000D02*
X172720000Y-86360000D01*
X152400000Y-91440000D02*
X152400000Y-88900000D01*
X152400000Y-88900000D02*
X172720000Y-88900000D01*
X152400000Y-91440000D02*
X172720000Y-91440000D01*
X172720000Y-91440000D02*
X172720000Y-88900000D01*
X152400000Y-93980000D02*
X152400000Y-91440000D01*
X152400000Y-91440000D02*
X172720000Y-91440000D01*
X152400000Y-93980000D02*
X172720000Y-93980000D01*
X172720000Y-93980000D02*
X172720000Y-91440000D01*
X152400000Y-96520000D02*
X152400000Y-93980000D01*
X152400000Y-93980000D02*
X172720000Y-93980000D01*
X152400000Y-96520000D02*
X172720000Y-96520000D01*
X172720000Y-96520000D02*
X172720000Y-93980000D01*
X152400000Y-99060000D02*
X152400000Y-96520000D01*
X152400000Y-96520000D02*
X172720000Y-96520000D01*
X152400000Y-99060000D02*
X172720000Y-99060000D01*
X172720000Y-99060000D02*
X172720000Y-96520000D01*
X152400000Y-101600000D02*
X152400000Y-99060000D01*
X152400000Y-99060000D02*
X172720000Y-99060000D01*
X152400000Y-101600000D02*
X172720000Y-101600000D01*
X172720000Y-101600000D02*
X172720000Y-99060000D01*
X152400000Y-104140000D02*
X152400000Y-101600000D01*
X152400000Y-101600000D02*
X172720000Y-101600000D01*
X152400000Y-104140000D02*
X172720000Y-104140000D01*
X172720000Y-104140000D02*
X172720000Y-101600000D01*
X152400000Y-106680000D02*
X152400000Y-104140000D01*
X152400000Y-104140000D02*
X172720000Y-104140000D01*
X152400000Y-106680000D02*
X172720000Y-106680000D01*
X172720000Y-106680000D02*
X172720000Y-104140000D01*
X152400000Y-109220000D02*
X152400000Y-106680000D01*
X152400000Y-106680000D02*
X172720000Y-106680000D01*
X152400000Y-109220000D02*
X172720000Y-109220000D01*
X172720000Y-109220000D02*
X172720000Y-106680000D01*
X147320000Y-106680000D02*
X147320000Y-109220000D01*
X147320000Y-109220000D02*
X127000000Y-109220000D01*
X147320000Y-106680000D02*
X127000000Y-106680000D01*
X127000000Y-106680000D02*
X127000000Y-109220000D01*
X147320000Y-104140000D02*
X147320000Y-106680000D01*
X147320000Y-106680000D02*
X127000000Y-106680000D01*
X147320000Y-104140000D02*
X127000000Y-104140000D01*
X127000000Y-104140000D02*
X127000000Y-106680000D01*
X147320000Y-101600000D02*
X147320000Y-104140000D01*
X147320000Y-104140000D02*
X127000000Y-104140000D01*
X147320000Y-101600000D02*
X127000000Y-101600000D01*
X127000000Y-101600000D02*
X127000000Y-104140000D01*
X147320000Y-99060000D02*
X147320000Y-101600000D01*
X147320000Y-101600000D02*
X127000000Y-101600000D01*
X147320000Y-99060000D02*
X127000000Y-99060000D01*
X127000000Y-99060000D02*
X127000000Y-101600000D01*
X147320000Y-96520000D02*
X147320000Y-99060000D01*
X147320000Y-99060000D02*
X127000000Y-99060000D01*
X147320000Y-96520000D02*
X127000000Y-96520000D01*
X127000000Y-96520000D02*
X127000000Y-99060000D01*
X147320000Y-93980000D02*
X147320000Y-96520000D01*
X147320000Y-96520000D02*
X127000000Y-96520000D01*
X147320000Y-93980000D02*
X127000000Y-93980000D01*
X127000000Y-93980000D02*
X127000000Y-96520000D01*
X147320000Y-91440000D02*
X147320000Y-93980000D01*
X147320000Y-93980000D02*
X127000000Y-93980000D01*
X147320000Y-91440000D02*
X127000000Y-91440000D01*
X127000000Y-91440000D02*
X127000000Y-93980000D01*
X147320000Y-88900000D02*
X147320000Y-91440000D01*
X147320000Y-91440000D02*
X127000000Y-91440000D01*
X147320000Y-88900000D02*
X127000000Y-88900000D01*
X127000000Y-88900000D02*
X127000000Y-91440000D01*
X147320000Y-86360000D02*
X147320000Y-88900000D01*
X147320000Y-88900000D02*
X127000000Y-88900000D01*
X147320000Y-86360000D02*
X127000000Y-86360000D01*
X127000000Y-86360000D02*
X127000000Y-88900000D01*
X147320000Y-83820000D02*
X147320000Y-86360000D01*
X147320000Y-86360000D02*
X127000000Y-86360000D01*
X147320000Y-83820000D02*
X127000000Y-83820000D01*
X127000000Y-83820000D02*
X127000000Y-86360000D01*
X147320000Y-81280000D02*
X147320000Y-83820000D01*
X147320000Y-83820000D02*
X127000000Y-83820000D01*
X147320000Y-81280000D02*
X127000000Y-81280000D01*
X127000000Y-81280000D02*
X127000000Y-83820000D01*
X147320000Y-78740000D02*
X147320000Y-81280000D01*
X147320000Y-81280000D02*
X127000000Y-81280000D01*
X147320000Y-78740000D02*
X127000000Y-78740000D01*
X127000000Y-78740000D02*
X127000000Y-81280000D01*
X147320000Y-76200000D02*
X147320000Y-78740000D01*
X147320000Y-78740000D02*
X127000000Y-78740000D01*
X147320000Y-76200000D02*
X127000000Y-76200000D01*
X127000000Y-76200000D02*
X127000000Y-78740000D01*
X147320000Y-73660000D02*
X147320000Y-76200000D01*
X147320000Y-76200000D02*
X127000000Y-76200000D01*
X147320000Y-73660000D02*
X127000000Y-73660000D01*
X127000000Y-73660000D02*
X127000000Y-76200000D01*
X147320000Y-71120000D02*
X147320000Y-73660000D01*
X147320000Y-73660000D02*
X127000000Y-73660000D01*
X147320000Y-71120000D02*
X127000000Y-71120000D01*
X127000000Y-71120000D02*
X127000000Y-73660000D01*
X147320000Y-68580000D02*
X147320000Y-71120000D01*
X147320000Y-71120000D02*
X127000000Y-71120000D01*
X147320000Y-68580000D02*
X127000000Y-68580000D01*
X127000000Y-68580000D02*
X127000000Y-71120000D01*
X147320000Y-66040000D02*
X147320000Y-68580000D01*
X147320000Y-68580000D02*
X127000000Y-68580000D01*
X147320000Y-66040000D02*
X127000000Y-66040000D01*
X127000000Y-66040000D02*
X127000000Y-68580000D01*
X147320000Y-63500000D02*
X147320000Y-66040000D01*
X147320000Y-66040000D02*
X127000000Y-66040000D01*
X147320000Y-63500000D02*
X127000000Y-63500000D01*
X127000000Y-63500000D02*
X127000000Y-66040000D01*
X149860000Y-63500000D02*
X152400000Y-63500000D01*
X152400000Y-63500000D02*
X152400000Y-109220000D01*
X149860000Y-63500000D02*
X149860000Y-109220000D01*
X149860000Y-109220000D02*
X152400000Y-109220000D01*
X147320000Y-63500000D02*
X149860000Y-63500000D01*
X149860000Y-63500000D02*
X149860000Y-109220000D01*
X147320000Y-63500000D02*
X147320000Y-109220000D01*
X147320000Y-109220000D02*
X149860000Y-109220000D01*
%LPC*%
D11*
G36*
X173990000Y-62230000D02*
G01*
X173990000Y-110490000D01*
X125730000Y-110490000D01*
X125730000Y-62865000D01*
X126365000Y-62865000D01*
X126365000Y-109855000D01*
X173355000Y-109855000D01*
X173355000Y-62865000D01*
X126365000Y-62865000D01*
X125730000Y-62865000D01*
X125730000Y-62230000D01*
X173990000Y-62230000D01*
G37*
X173990000Y-62230000D02*
X173990000Y-110490000D01*
X125730000Y-110490000D01*
X125730000Y-62865000D01*
X126365000Y-62865000D01*
X126365000Y-109855000D01*
X173355000Y-109855000D01*
X173355000Y-62865000D01*
X126365000Y-62865000D01*
X125730000Y-62865000D01*
X125730000Y-62230000D01*
X173990000Y-62230000D01*
D12*
X171450000Y-64770000D03*
X168910000Y-64770000D03*
X166370000Y-64770000D03*
X163830000Y-64770000D03*
X161290000Y-64770000D03*
X158750000Y-64770000D03*
X156210000Y-64770000D03*
D13*
X153670000Y-64770000D03*
D12*
X171450000Y-67310000D03*
X168910000Y-67310000D03*
X166370000Y-67310000D03*
X163830000Y-67310000D03*
X161290000Y-67310000D03*
X158750000Y-67310000D03*
X156210000Y-67310000D03*
D13*
X153670000Y-67310000D03*
D12*
X171450000Y-69850000D03*
X168910000Y-69850000D03*
X166370000Y-69850000D03*
X163830000Y-69850000D03*
X161290000Y-69850000D03*
X158750000Y-69850000D03*
X156210000Y-69850000D03*
D13*
X153670000Y-69850000D03*
D12*
X171450000Y-72390000D03*
X168910000Y-72390000D03*
X166370000Y-72390000D03*
X163830000Y-72390000D03*
X161290000Y-72390000D03*
X158750000Y-72390000D03*
X156210000Y-72390000D03*
D13*
X153670000Y-72390000D03*
D12*
X171450000Y-74930000D03*
X168910000Y-74930000D03*
X166370000Y-74930000D03*
X163830000Y-74930000D03*
X161290000Y-74930000D03*
X158750000Y-74930000D03*
X156210000Y-74930000D03*
D13*
X153670000Y-74930000D03*
D12*
X171450000Y-77470000D03*
X168910000Y-77470000D03*
X166370000Y-77470000D03*
X163830000Y-77470000D03*
X161290000Y-77470000D03*
X158750000Y-77470000D03*
X156210000Y-77470000D03*
D13*
X153670000Y-77470000D03*
D12*
X171450000Y-80010000D03*
X168910000Y-80010000D03*
X166370000Y-80010000D03*
X163830000Y-80010000D03*
X161290000Y-80010000D03*
X158750000Y-80010000D03*
X156210000Y-80010000D03*
D13*
X153670000Y-80010000D03*
D12*
X171450000Y-82550000D03*
X168910000Y-82550000D03*
X166370000Y-82550000D03*
X163830000Y-82550000D03*
X161290000Y-82550000D03*
X158750000Y-82550000D03*
X156210000Y-82550000D03*
D13*
X153670000Y-82550000D03*
D12*
X171450000Y-85090000D03*
X168910000Y-85090000D03*
X166370000Y-85090000D03*
X163830000Y-85090000D03*
X161290000Y-85090000D03*
X158750000Y-85090000D03*
X156210000Y-85090000D03*
D13*
X153670000Y-85090000D03*
D12*
X171450000Y-87630000D03*
X168910000Y-87630000D03*
X166370000Y-87630000D03*
X163830000Y-87630000D03*
X161290000Y-87630000D03*
X158750000Y-87630000D03*
X156210000Y-87630000D03*
D13*
X153670000Y-87630000D03*
D12*
X171450000Y-90170000D03*
X168910000Y-90170000D03*
X166370000Y-90170000D03*
X163830000Y-90170000D03*
X161290000Y-90170000D03*
X158750000Y-90170000D03*
X156210000Y-90170000D03*
D13*
X153670000Y-90170000D03*
D12*
X171450000Y-92710000D03*
X168910000Y-92710000D03*
X166370000Y-92710000D03*
X163830000Y-92710000D03*
X161290000Y-92710000D03*
X158750000Y-92710000D03*
X156210000Y-92710000D03*
D13*
X153670000Y-92710000D03*
D12*
X171450000Y-95250000D03*
X168910000Y-95250000D03*
X166370000Y-95250000D03*
X163830000Y-95250000D03*
X161290000Y-95250000D03*
X158750000Y-95250000D03*
X156210000Y-95250000D03*
D13*
X153670000Y-95250000D03*
D12*
X171450000Y-97790000D03*
X168910000Y-97790000D03*
X166370000Y-97790000D03*
X163830000Y-97790000D03*
X161290000Y-97790000D03*
X158750000Y-97790000D03*
X156210000Y-97790000D03*
D13*
X153670000Y-97790000D03*
D12*
X171450000Y-100330000D03*
X168910000Y-100330000D03*
X166370000Y-100330000D03*
X163830000Y-100330000D03*
X161290000Y-100330000D03*
X158750000Y-100330000D03*
X156210000Y-100330000D03*
D13*
X153670000Y-100330000D03*
D12*
X171450000Y-102870000D03*
X168910000Y-102870000D03*
X166370000Y-102870000D03*
X163830000Y-102870000D03*
X161290000Y-102870000D03*
X158750000Y-102870000D03*
X156210000Y-102870000D03*
D13*
X153670000Y-102870000D03*
D12*
X171450000Y-105410000D03*
X168910000Y-105410000D03*
X166370000Y-105410000D03*
X163830000Y-105410000D03*
X161290000Y-105410000D03*
X158750000Y-105410000D03*
X156210000Y-105410000D03*
D13*
X153670000Y-105410000D03*
D12*
X171450000Y-107950000D03*
X168910000Y-107950000D03*
X166370000Y-107950000D03*
X163830000Y-107950000D03*
X161290000Y-107950000D03*
X158750000Y-107950000D03*
X156210000Y-107950000D03*
D13*
X153670000Y-107950000D03*
D12*
X128270000Y-107950000D03*
X130810000Y-107950000D03*
X133350000Y-107950000D03*
X135890000Y-107950000D03*
X138430000Y-107950000D03*
X140970000Y-107950000D03*
X143510000Y-107950000D03*
D13*
X146050000Y-107950000D03*
D12*
X128270000Y-105410000D03*
X130810000Y-105410000D03*
X133350000Y-105410000D03*
X135890000Y-105410000D03*
X138430000Y-105410000D03*
X140970000Y-105410000D03*
X143510000Y-105410000D03*
D13*
X146050000Y-105410000D03*
D12*
X128270000Y-102870000D03*
X130810000Y-102870000D03*
X133350000Y-102870000D03*
X135890000Y-102870000D03*
X138430000Y-102870000D03*
X140970000Y-102870000D03*
X143510000Y-102870000D03*
D13*
X146050000Y-102870000D03*
D12*
X128270000Y-100330000D03*
X130810000Y-100330000D03*
X133350000Y-100330000D03*
X135890000Y-100330000D03*
X138430000Y-100330000D03*
X140970000Y-100330000D03*
X143510000Y-100330000D03*
D13*
X146050000Y-100330000D03*
D12*
X128270000Y-97790000D03*
X130810000Y-97790000D03*
X133350000Y-97790000D03*
X135890000Y-97790000D03*
X138430000Y-97790000D03*
X140970000Y-97790000D03*
X143510000Y-97790000D03*
D13*
X146050000Y-97790000D03*
D12*
X128270000Y-95250000D03*
X130810000Y-95250000D03*
X133350000Y-95250000D03*
X135890000Y-95250000D03*
X138430000Y-95250000D03*
X140970000Y-95250000D03*
X143510000Y-95250000D03*
D13*
X146050000Y-95250000D03*
D12*
X128270000Y-92710000D03*
X130810000Y-92710000D03*
X133350000Y-92710000D03*
X135890000Y-92710000D03*
X138430000Y-92710000D03*
X140970000Y-92710000D03*
X143510000Y-92710000D03*
D13*
X146050000Y-92710000D03*
D12*
X128270000Y-90170000D03*
X130810000Y-90170000D03*
X133350000Y-90170000D03*
X135890000Y-90170000D03*
X138430000Y-90170000D03*
X140970000Y-90170000D03*
X143510000Y-90170000D03*
D13*
X146050000Y-90170000D03*
D12*
X128270000Y-87630000D03*
X130810000Y-87630000D03*
X133350000Y-87630000D03*
X135890000Y-87630000D03*
X138430000Y-87630000D03*
X140970000Y-87630000D03*
X143510000Y-87630000D03*
D13*
X146050000Y-87630000D03*
D12*
X128270000Y-85090000D03*
X130810000Y-85090000D03*
X133350000Y-85090000D03*
X135890000Y-85090000D03*
X138430000Y-85090000D03*
X140970000Y-85090000D03*
X143510000Y-85090000D03*
D13*
X146050000Y-85090000D03*
D12*
X128270000Y-82550000D03*
X130810000Y-82550000D03*
X133350000Y-82550000D03*
X135890000Y-82550000D03*
X138430000Y-82550000D03*
X140970000Y-82550000D03*
X143510000Y-82550000D03*
D13*
X146050000Y-82550000D03*
D12*
X128270000Y-80010000D03*
X130810000Y-80010000D03*
X133350000Y-80010000D03*
X135890000Y-80010000D03*
X138430000Y-80010000D03*
X140970000Y-80010000D03*
X143510000Y-80010000D03*
D13*
X146050000Y-80010000D03*
D12*
X128270000Y-77470000D03*
X130810000Y-77470000D03*
X133350000Y-77470000D03*
X135890000Y-77470000D03*
X138430000Y-77470000D03*
X140970000Y-77470000D03*
X143510000Y-77470000D03*
D13*
X146050000Y-77470000D03*
D12*
X128270000Y-74930000D03*
X130810000Y-74930000D03*
X133350000Y-74930000D03*
X135890000Y-74930000D03*
X138430000Y-74930000D03*
X140970000Y-74930000D03*
X143510000Y-74930000D03*
D13*
X146050000Y-74930000D03*
D12*
X128270000Y-72390000D03*
X130810000Y-72390000D03*
X133350000Y-72390000D03*
X135890000Y-72390000D03*
X138430000Y-72390000D03*
X140970000Y-72390000D03*
X143510000Y-72390000D03*
D13*
X146050000Y-72390000D03*
D12*
X128270000Y-69850000D03*
X130810000Y-69850000D03*
X133350000Y-69850000D03*
X135890000Y-69850000D03*
X138430000Y-69850000D03*
X140970000Y-69850000D03*
X143510000Y-69850000D03*
D13*
X146050000Y-69850000D03*
D12*
X128270000Y-67310000D03*
X130810000Y-67310000D03*
X133350000Y-67310000D03*
X135890000Y-67310000D03*
X138430000Y-67310000D03*
X140970000Y-67310000D03*
X143510000Y-67310000D03*
D13*
X146050000Y-67310000D03*
D12*
X128270000Y-64770000D03*
X130810000Y-64770000D03*
X133350000Y-64770000D03*
X135890000Y-64770000D03*
X138430000Y-64770000D03*
X140970000Y-64770000D03*
X143510000Y-64770000D03*
D13*
X146050000Y-64770000D03*
X151130000Y-107950000D03*
D12*
X151130000Y-105410000D03*
X151130000Y-102870000D03*
X151130000Y-100330000D03*
X151130000Y-97790000D03*
X151130000Y-95250000D03*
X151130000Y-92710000D03*
X151130000Y-90170000D03*
X151130000Y-87630000D03*
X151130000Y-85090000D03*
X151130000Y-82550000D03*
X151130000Y-80010000D03*
X151130000Y-77470000D03*
X151130000Y-74930000D03*
X151130000Y-72390000D03*
X151130000Y-69850000D03*
X151130000Y-67310000D03*
D13*
X151130000Y-64770000D03*
X148590000Y-107950000D03*
D12*
X148590000Y-105410000D03*
X148590000Y-102870000D03*
X148590000Y-100330000D03*
X148590000Y-97790000D03*
X148590000Y-95250000D03*
X148590000Y-92710000D03*
X148590000Y-90170000D03*
X148590000Y-87630000D03*
X148590000Y-85090000D03*
X148590000Y-82550000D03*
X148590000Y-80010000D03*
X148590000Y-77470000D03*
X148590000Y-74930000D03*
X148590000Y-72390000D03*
X148590000Y-69850000D03*
X148590000Y-67310000D03*
D13*
X148590000Y-64770000D03*
M02*
