G04 #@! TF.GenerationSoftware,KiCad,Pcbnew,5.1.5-5.1.5*
G04 #@! TF.CreationDate,2020-06-30T19:25:59-04:00*
G04 #@! TF.ProjectId,PIN-100,50494e2d-3130-4302-9e6b-696361645f70,1*
G04 #@! TF.SameCoordinates,Original*
G04 #@! TF.FileFunction,Soldermask,Bot*
G04 #@! TF.FilePolarity,Negative*
%FSLAX46Y46*%
G04 Gerber Fmt 4.6, Leading zero omitted, Abs format (unit mm)*
G04 Created by KiCad (PCBNEW 5.1.5-5.1.5) date 2020-06-30 19:25:59*
%MOMM*%
%LPD*%
G04 APERTURE LIST*
%ADD10C,0.100000*%
%ADD11O,2.133600X2.133600*%
%ADD12R,2.133600X2.133600*%
G04 APERTURE END LIST*
D10*
G36*
X173990000Y-110490000D02*
G01*
X125730000Y-110490000D01*
X125730000Y-62865000D01*
X126365000Y-62865000D01*
X126365000Y-109855000D01*
X173355000Y-109855000D01*
X173355000Y-62865000D01*
X126365000Y-62865000D01*
X125730000Y-62865000D01*
X125730000Y-62230000D01*
X173990000Y-62230000D01*
X173990000Y-110490000D01*
G37*
X173990000Y-110490000D02*
X125730000Y-110490000D01*
X125730000Y-62865000D01*
X126365000Y-62865000D01*
X126365000Y-109855000D01*
X173355000Y-109855000D01*
X173355000Y-62865000D01*
X126365000Y-62865000D01*
X125730000Y-62865000D01*
X125730000Y-62230000D01*
X173990000Y-62230000D01*
X173990000Y-110490000D01*
D11*
X171450000Y-64770000D03*
X168910000Y-64770000D03*
X166370000Y-64770000D03*
X163830000Y-64770000D03*
X161290000Y-64770000D03*
X158750000Y-64770000D03*
X156210000Y-64770000D03*
D12*
X153670000Y-64770000D03*
D11*
X171450000Y-67310000D03*
X168910000Y-67310000D03*
X166370000Y-67310000D03*
X163830000Y-67310000D03*
X161290000Y-67310000D03*
X158750000Y-67310000D03*
X156210000Y-67310000D03*
D12*
X153670000Y-67310000D03*
D11*
X171450000Y-69850000D03*
X168910000Y-69850000D03*
X166370000Y-69850000D03*
X163830000Y-69850000D03*
X161290000Y-69850000D03*
X158750000Y-69850000D03*
X156210000Y-69850000D03*
D12*
X153670000Y-69850000D03*
D11*
X171450000Y-72390000D03*
X168910000Y-72390000D03*
X166370000Y-72390000D03*
X163830000Y-72390000D03*
X161290000Y-72390000D03*
X158750000Y-72390000D03*
X156210000Y-72390000D03*
D12*
X153670000Y-72390000D03*
D11*
X171450000Y-74930000D03*
X168910000Y-74930000D03*
X166370000Y-74930000D03*
X163830000Y-74930000D03*
X161290000Y-74930000D03*
X158750000Y-74930000D03*
X156210000Y-74930000D03*
D12*
X153670000Y-74930000D03*
D11*
X171450000Y-77470000D03*
X168910000Y-77470000D03*
X166370000Y-77470000D03*
X163830000Y-77470000D03*
X161290000Y-77470000D03*
X158750000Y-77470000D03*
X156210000Y-77470000D03*
D12*
X153670000Y-77470000D03*
D11*
X171450000Y-80010000D03*
X168910000Y-80010000D03*
X166370000Y-80010000D03*
X163830000Y-80010000D03*
X161290000Y-80010000D03*
X158750000Y-80010000D03*
X156210000Y-80010000D03*
D12*
X153670000Y-80010000D03*
D11*
X171450000Y-82550000D03*
X168910000Y-82550000D03*
X166370000Y-82550000D03*
X163830000Y-82550000D03*
X161290000Y-82550000D03*
X158750000Y-82550000D03*
X156210000Y-82550000D03*
D12*
X153670000Y-82550000D03*
D11*
X171450000Y-85090000D03*
X168910000Y-85090000D03*
X166370000Y-85090000D03*
X163830000Y-85090000D03*
X161290000Y-85090000D03*
X158750000Y-85090000D03*
X156210000Y-85090000D03*
D12*
X153670000Y-85090000D03*
D11*
X171450000Y-87630000D03*
X168910000Y-87630000D03*
X166370000Y-87630000D03*
X163830000Y-87630000D03*
X161290000Y-87630000D03*
X158750000Y-87630000D03*
X156210000Y-87630000D03*
D12*
X153670000Y-87630000D03*
D11*
X171450000Y-90170000D03*
X168910000Y-90170000D03*
X166370000Y-90170000D03*
X163830000Y-90170000D03*
X161290000Y-90170000D03*
X158750000Y-90170000D03*
X156210000Y-90170000D03*
D12*
X153670000Y-90170000D03*
D11*
X171450000Y-92710000D03*
X168910000Y-92710000D03*
X166370000Y-92710000D03*
X163830000Y-92710000D03*
X161290000Y-92710000D03*
X158750000Y-92710000D03*
X156210000Y-92710000D03*
D12*
X153670000Y-92710000D03*
D11*
X171450000Y-95250000D03*
X168910000Y-95250000D03*
X166370000Y-95250000D03*
X163830000Y-95250000D03*
X161290000Y-95250000D03*
X158750000Y-95250000D03*
X156210000Y-95250000D03*
D12*
X153670000Y-95250000D03*
D11*
X171450000Y-97790000D03*
X168910000Y-97790000D03*
X166370000Y-97790000D03*
X163830000Y-97790000D03*
X161290000Y-97790000D03*
X158750000Y-97790000D03*
X156210000Y-97790000D03*
D12*
X153670000Y-97790000D03*
D11*
X171450000Y-100330000D03*
X168910000Y-100330000D03*
X166370000Y-100330000D03*
X163830000Y-100330000D03*
X161290000Y-100330000D03*
X158750000Y-100330000D03*
X156210000Y-100330000D03*
D12*
X153670000Y-100330000D03*
D11*
X171450000Y-102870000D03*
X168910000Y-102870000D03*
X166370000Y-102870000D03*
X163830000Y-102870000D03*
X161290000Y-102870000D03*
X158750000Y-102870000D03*
X156210000Y-102870000D03*
D12*
X153670000Y-102870000D03*
D11*
X171450000Y-105410000D03*
X168910000Y-105410000D03*
X166370000Y-105410000D03*
X163830000Y-105410000D03*
X161290000Y-105410000D03*
X158750000Y-105410000D03*
X156210000Y-105410000D03*
D12*
X153670000Y-105410000D03*
D11*
X171450000Y-107950000D03*
X168910000Y-107950000D03*
X166370000Y-107950000D03*
X163830000Y-107950000D03*
X161290000Y-107950000D03*
X158750000Y-107950000D03*
X156210000Y-107950000D03*
D12*
X153670000Y-107950000D03*
D11*
X128270000Y-107950000D03*
X130810000Y-107950000D03*
X133350000Y-107950000D03*
X135890000Y-107950000D03*
X138430000Y-107950000D03*
X140970000Y-107950000D03*
X143510000Y-107950000D03*
D12*
X146050000Y-107950000D03*
D11*
X128270000Y-105410000D03*
X130810000Y-105410000D03*
X133350000Y-105410000D03*
X135890000Y-105410000D03*
X138430000Y-105410000D03*
X140970000Y-105410000D03*
X143510000Y-105410000D03*
D12*
X146050000Y-105410000D03*
D11*
X128270000Y-102870000D03*
X130810000Y-102870000D03*
X133350000Y-102870000D03*
X135890000Y-102870000D03*
X138430000Y-102870000D03*
X140970000Y-102870000D03*
X143510000Y-102870000D03*
D12*
X146050000Y-102870000D03*
D11*
X128270000Y-100330000D03*
X130810000Y-100330000D03*
X133350000Y-100330000D03*
X135890000Y-100330000D03*
X138430000Y-100330000D03*
X140970000Y-100330000D03*
X143510000Y-100330000D03*
D12*
X146050000Y-100330000D03*
D11*
X128270000Y-97790000D03*
X130810000Y-97790000D03*
X133350000Y-97790000D03*
X135890000Y-97790000D03*
X138430000Y-97790000D03*
X140970000Y-97790000D03*
X143510000Y-97790000D03*
D12*
X146050000Y-97790000D03*
D11*
X128270000Y-95250000D03*
X130810000Y-95250000D03*
X133350000Y-95250000D03*
X135890000Y-95250000D03*
X138430000Y-95250000D03*
X140970000Y-95250000D03*
X143510000Y-95250000D03*
D12*
X146050000Y-95250000D03*
D11*
X128270000Y-92710000D03*
X130810000Y-92710000D03*
X133350000Y-92710000D03*
X135890000Y-92710000D03*
X138430000Y-92710000D03*
X140970000Y-92710000D03*
X143510000Y-92710000D03*
D12*
X146050000Y-92710000D03*
D11*
X128270000Y-90170000D03*
X130810000Y-90170000D03*
X133350000Y-90170000D03*
X135890000Y-90170000D03*
X138430000Y-90170000D03*
X140970000Y-90170000D03*
X143510000Y-90170000D03*
D12*
X146050000Y-90170000D03*
D11*
X128270000Y-87630000D03*
X130810000Y-87630000D03*
X133350000Y-87630000D03*
X135890000Y-87630000D03*
X138430000Y-87630000D03*
X140970000Y-87630000D03*
X143510000Y-87630000D03*
D12*
X146050000Y-87630000D03*
D11*
X128270000Y-85090000D03*
X130810000Y-85090000D03*
X133350000Y-85090000D03*
X135890000Y-85090000D03*
X138430000Y-85090000D03*
X140970000Y-85090000D03*
X143510000Y-85090000D03*
D12*
X146050000Y-85090000D03*
D11*
X128270000Y-82550000D03*
X130810000Y-82550000D03*
X133350000Y-82550000D03*
X135890000Y-82550000D03*
X138430000Y-82550000D03*
X140970000Y-82550000D03*
X143510000Y-82550000D03*
D12*
X146050000Y-82550000D03*
D11*
X128270000Y-80010000D03*
X130810000Y-80010000D03*
X133350000Y-80010000D03*
X135890000Y-80010000D03*
X138430000Y-80010000D03*
X140970000Y-80010000D03*
X143510000Y-80010000D03*
D12*
X146050000Y-80010000D03*
D11*
X128270000Y-77470000D03*
X130810000Y-77470000D03*
X133350000Y-77470000D03*
X135890000Y-77470000D03*
X138430000Y-77470000D03*
X140970000Y-77470000D03*
X143510000Y-77470000D03*
D12*
X146050000Y-77470000D03*
D11*
X128270000Y-74930000D03*
X130810000Y-74930000D03*
X133350000Y-74930000D03*
X135890000Y-74930000D03*
X138430000Y-74930000D03*
X140970000Y-74930000D03*
X143510000Y-74930000D03*
D12*
X146050000Y-74930000D03*
D11*
X128270000Y-72390000D03*
X130810000Y-72390000D03*
X133350000Y-72390000D03*
X135890000Y-72390000D03*
X138430000Y-72390000D03*
X140970000Y-72390000D03*
X143510000Y-72390000D03*
D12*
X146050000Y-72390000D03*
D11*
X128270000Y-69850000D03*
X130810000Y-69850000D03*
X133350000Y-69850000D03*
X135890000Y-69850000D03*
X138430000Y-69850000D03*
X140970000Y-69850000D03*
X143510000Y-69850000D03*
D12*
X146050000Y-69850000D03*
D11*
X128270000Y-67310000D03*
X130810000Y-67310000D03*
X133350000Y-67310000D03*
X135890000Y-67310000D03*
X138430000Y-67310000D03*
X140970000Y-67310000D03*
X143510000Y-67310000D03*
D12*
X146050000Y-67310000D03*
D11*
X128270000Y-64770000D03*
X130810000Y-64770000D03*
X133350000Y-64770000D03*
X135890000Y-64770000D03*
X138430000Y-64770000D03*
X140970000Y-64770000D03*
X143510000Y-64770000D03*
D12*
X146050000Y-64770000D03*
X151130000Y-107950000D03*
D11*
X151130000Y-105410000D03*
X151130000Y-102870000D03*
X151130000Y-100330000D03*
X151130000Y-97790000D03*
X151130000Y-95250000D03*
X151130000Y-92710000D03*
X151130000Y-90170000D03*
X151130000Y-87630000D03*
X151130000Y-85090000D03*
X151130000Y-82550000D03*
X151130000Y-80010000D03*
X151130000Y-77470000D03*
X151130000Y-74930000D03*
X151130000Y-72390000D03*
X151130000Y-69850000D03*
X151130000Y-67310000D03*
D12*
X151130000Y-64770000D03*
X148590000Y-107950000D03*
D11*
X148590000Y-105410000D03*
X148590000Y-102870000D03*
X148590000Y-100330000D03*
X148590000Y-97790000D03*
X148590000Y-95250000D03*
X148590000Y-92710000D03*
X148590000Y-90170000D03*
X148590000Y-87630000D03*
X148590000Y-85090000D03*
X148590000Y-82550000D03*
X148590000Y-80010000D03*
X148590000Y-77470000D03*
X148590000Y-74930000D03*
X148590000Y-72390000D03*
X148590000Y-69850000D03*
X148590000Y-67310000D03*
D12*
X148590000Y-64770000D03*
M02*
