M48
; DRILL file {KiCad 5.1.5-5.1.5} date Tue 30 Jun 2020 07:26:02 PM EDT
; FORMAT={-:-/ absolute / inch / decimal}
; #@! TF.CreationDate,2020-06-30T19:26:02-04:00
; #@! TF.GenerationSoftware,Kicad,Pcbnew,5.1.5-5.1.5
FMAT,2
INCH
T1C0.0394
%
G90
G05
T1
X6.05Y-3.85
X6.15Y-3.85
X6.25Y-3.85
X6.35Y-3.85
X6.45Y-3.85
X6.55Y-3.85
X6.65Y-3.85
X6.75Y-3.85
X5.05Y-2.65
X5.15Y-2.65
X5.25Y-2.65
X5.35Y-2.65
X5.45Y-2.65
X5.55Y-2.65
X5.65Y-2.65
X5.75Y-2.65
X5.05Y-2.55
X5.15Y-2.55
X5.25Y-2.55
X5.35Y-2.55
X5.45Y-2.55
X5.55Y-2.55
X5.65Y-2.55
X5.75Y-2.55
X6.05Y-3.75
X6.15Y-3.75
X6.25Y-3.75
X6.35Y-3.75
X6.45Y-3.75
X6.55Y-3.75
X6.65Y-3.75
X6.75Y-3.75
X5.05Y-3.85
X5.15Y-3.85
X5.25Y-3.85
X5.35Y-3.85
X5.45Y-3.85
X5.55Y-3.85
X5.65Y-3.85
X5.75Y-3.85
X6.05Y-3.45
X6.15Y-3.45
X6.25Y-3.45
X6.35Y-3.45
X6.45Y-3.45
X6.55Y-3.45
X6.65Y-3.45
X6.75Y-3.45
X5.05Y-4.15
X5.15Y-4.15
X5.25Y-4.15
X5.35Y-4.15
X5.45Y-4.15
X5.55Y-4.15
X5.65Y-4.15
X5.75Y-4.15
X5.05Y-2.75
X5.15Y-2.75
X5.25Y-2.75
X5.35Y-2.75
X5.45Y-2.75
X5.55Y-2.75
X5.65Y-2.75
X5.75Y-2.75
X6.05Y-2.85
X6.15Y-2.85
X6.25Y-2.85
X6.35Y-2.85
X6.45Y-2.85
X6.55Y-2.85
X6.65Y-2.85
X6.75Y-2.85
X6.05Y-3.25
X6.15Y-3.25
X6.25Y-3.25
X6.35Y-3.25
X6.45Y-3.25
X6.55Y-3.25
X6.65Y-3.25
X6.75Y-3.25
X6.05Y-3.35
X6.15Y-3.35
X6.25Y-3.35
X6.35Y-3.35
X6.45Y-3.35
X6.55Y-3.35
X6.65Y-3.35
X6.75Y-3.35
X5.05Y-3.55
X5.15Y-3.55
X5.25Y-3.55
X5.35Y-3.55
X5.45Y-3.55
X5.55Y-3.55
X5.65Y-3.55
X5.75Y-3.55
X5.05Y-4.25
X5.15Y-4.25
X5.25Y-4.25
X5.35Y-4.25
X5.45Y-4.25
X5.55Y-4.25
X5.65Y-4.25
X5.75Y-4.25
X6.05Y-4.25
X6.15Y-4.25
X6.25Y-4.25
X6.35Y-4.25
X6.45Y-4.25
X6.55Y-4.25
X6.65Y-4.25
X6.75Y-4.25
X5.05Y-3.05
X5.15Y-3.05
X5.25Y-3.05
X5.35Y-3.05
X5.45Y-3.05
X5.55Y-3.05
X5.65Y-3.05
X5.75Y-3.05
X5.05Y-3.65
X5.15Y-3.65
X5.25Y-3.65
X5.35Y-3.65
X5.45Y-3.65
X5.55Y-3.65
X5.65Y-3.65
X5.75Y-3.65
X5.05Y-3.35
X5.15Y-3.35
X5.25Y-3.35
X5.35Y-3.35
X5.45Y-3.35
X5.55Y-3.35
X5.65Y-3.35
X5.75Y-3.35
X5.05Y-2.95
X5.15Y-2.95
X5.25Y-2.95
X5.35Y-2.95
X5.45Y-2.95
X5.55Y-2.95
X5.65Y-2.95
X5.75Y-2.95
X6.05Y-2.95
X6.15Y-2.95
X6.25Y-2.95
X6.35Y-2.95
X6.45Y-2.95
X6.55Y-2.95
X6.65Y-2.95
X6.75Y-2.95
X5.05Y-3.15
X5.15Y-3.15
X5.25Y-3.15
X5.35Y-3.15
X5.45Y-3.15
X5.55Y-3.15
X5.65Y-3.15
X5.75Y-3.15
X6.05Y-4.15
X6.15Y-4.15
X6.25Y-4.15
X6.35Y-4.15
X6.45Y-4.15
X6.55Y-4.15
X6.65Y-4.15
X6.75Y-4.15
X5.05Y-4.05
X5.15Y-4.05
X5.25Y-4.05
X5.35Y-4.05
X5.45Y-4.05
X5.55Y-4.05
X5.65Y-4.05
X5.75Y-4.05
X6.05Y-2.75
X6.15Y-2.75
X6.25Y-2.75
X6.35Y-2.75
X6.45Y-2.75
X6.55Y-2.75
X6.65Y-2.75
X6.75Y-2.75
X6.05Y-3.55
X6.15Y-3.55
X6.25Y-3.55
X6.35Y-3.55
X6.45Y-3.55
X6.55Y-3.55
X6.65Y-3.55
X6.75Y-3.55
X5.05Y-2.85
X5.15Y-2.85
X5.25Y-2.85
X5.35Y-2.85
X5.45Y-2.85
X5.55Y-2.85
X5.65Y-2.85
X5.75Y-2.85
X6.05Y-2.55
X6.15Y-2.55
X6.25Y-2.55
X6.35Y-2.55
X6.45Y-2.55
X6.55Y-2.55
X6.65Y-2.55
X6.75Y-2.55
X5.05Y-3.75
X5.15Y-3.75
X5.25Y-3.75
X5.35Y-3.75
X5.45Y-3.75
X5.55Y-3.75
X5.65Y-3.75
X5.75Y-3.75
X6.05Y-2.65
X6.15Y-2.65
X6.25Y-2.65
X6.35Y-2.65
X6.45Y-2.65
X6.55Y-2.65
X6.65Y-2.65
X6.75Y-2.65
X6.05Y-3.05
X6.15Y-3.05
X6.25Y-3.05
X6.35Y-3.05
X6.45Y-3.05
X6.55Y-3.05
X6.65Y-3.05
X6.75Y-3.05
X6.05Y-4.05
X6.15Y-4.05
X6.25Y-4.05
X6.35Y-4.05
X6.45Y-4.05
X6.55Y-4.05
X6.65Y-4.05
X6.75Y-4.05
X5.05Y-3.25
X5.15Y-3.25
X5.25Y-3.25
X5.35Y-3.25
X5.45Y-3.25
X5.55Y-3.25
X5.65Y-3.25
X5.75Y-3.25
X6.05Y-3.15
X6.15Y-3.15
X6.25Y-3.15
X6.35Y-3.15
X6.45Y-3.15
X6.55Y-3.15
X6.65Y-3.15
X6.75Y-3.15
X6.05Y-3.65
X6.15Y-3.65
X6.25Y-3.65
X6.35Y-3.65
X6.45Y-3.65
X6.55Y-3.65
X6.65Y-3.65
X6.75Y-3.65
X5.85Y-2.55
X5.85Y-2.65
X5.85Y-2.75
X5.85Y-2.85
X5.85Y-2.95
X5.85Y-3.05
X5.85Y-3.15
X5.85Y-3.25
X5.85Y-3.35
X5.85Y-3.45
X5.85Y-3.55
X5.85Y-3.65
X5.85Y-3.75
X5.85Y-3.85
X5.85Y-3.95
X5.85Y-4.05
X5.85Y-4.15
X5.85Y-4.25
X6.05Y-3.95
X6.15Y-3.95
X6.25Y-3.95
X6.35Y-3.95
X6.45Y-3.95
X6.55Y-3.95
X6.65Y-3.95
X6.75Y-3.95
X5.05Y-3.45
X5.15Y-3.45
X5.25Y-3.45
X5.35Y-3.45
X5.45Y-3.45
X5.55Y-3.45
X5.65Y-3.45
X5.75Y-3.45
X5.95Y-2.55
X5.95Y-2.65
X5.95Y-2.75
X5.95Y-2.85
X5.95Y-2.95
X5.95Y-3.05
X5.95Y-3.15
X5.95Y-3.25
X5.95Y-3.35
X5.95Y-3.45
X5.95Y-3.55
X5.95Y-3.65
X5.95Y-3.75
X5.95Y-3.85
X5.95Y-3.95
X5.95Y-4.05
X5.95Y-4.15
X5.95Y-4.25
X5.05Y-3.95
X5.15Y-3.95
X5.25Y-3.95
X5.35Y-3.95
X5.45Y-3.95
X5.55Y-3.95
X5.65Y-3.95
X5.75Y-3.95
T0
M30
